<?xml version="1.0" encoding="UTF-8"?>
<svg xmlns="http://www.w3.org/2000/svg" xmlns:xlink="http://www.w3.org/1999/xlink" width="375pt" height="374.999991pt" viewBox="0 0 375 374.999991" version="1.2">
<defs>
<clipPath id="clip1">
  <path d="M 113.570312 50 L 261.320312 50 L 261.320312 289.300781 L 113.570312 289.300781 Z M 113.570312 50 "/>
</clipPath>
</defs>
<g id="surface1">
<g clip-path="url(#clip1)" clip-rule="nonzero">
<path style=" stroke:none;fill-rule:evenodd;fill:rgb(0%,0%,0%);fill-opacity:1;" d="M 187.695312 289.300781 C 182.242188 262.476562 172.621094 240.152344 160.972656 219.460938 C 152.332031 204.113281 142.320312 189.949219 133.058594 175.066406 C 129.96875 170.097656 127.296875 164.851562 124.328125 159.695312 C 118.386719 149.386719 113.570312 137.429688 113.875 121.925781 C 114.175781 106.777344 118.550781 94.625 124.855469 84.6875 C 135.230469 68.34375 152.609375 54.945312 175.921875 51.425781 C 194.988281 48.546875 212.859375 53.410156 225.535156 60.835938 C 235.890625 66.902344 243.914062 75.003906 250.007812 84.554688 C 256.371094 94.523438 260.753906 106.300781 261.121094 121.660156 C 261.3125 129.53125 260.023438 136.820312 258.210938 142.863281 C 256.378906 148.984375 253.429688 154.097656 250.804688 159.5625 C 245.679688 170.226562 239.257812 180 232.8125 189.777344 C 213.609375 218.898438 195.589844 248.601562 187.699219 289.300781 Z M 187.695312 289.300781 "/>
</g>
<path style=" stroke:none;fill-rule:nonzero;fill:rgb(100%,100%,100%);fill-opacity:1;" d="M 213.300781 121.757812 C 213.300781 122.605469 213.257812 123.449219 213.175781 124.292969 C 213.09375 125.132812 212.96875 125.96875 212.804688 126.800781 C 212.640625 127.628906 212.433594 128.449219 212.191406 129.261719 C 211.945312 130.070312 211.660156 130.867188 211.335938 131.648438 C 211.011719 132.429688 210.652344 133.195312 210.253906 133.941406 C 209.855469 134.6875 209.421875 135.414062 208.953125 136.117188 C 208.484375 136.820312 207.980469 137.5 207.445312 138.152344 C 206.910156 138.808594 206.339844 139.433594 205.742188 140.03125 C 205.148438 140.632812 204.519531 141.199219 203.867188 141.734375 C 203.214844 142.273438 202.535156 142.777344 201.835938 143.246094 C 201.132812 143.714844 200.40625 144.152344 199.664062 144.550781 C 198.917969 144.949219 198.15625 145.3125 197.375 145.632812 C 196.59375 145.957031 195.800781 146.242188 194.992188 146.488281 C 194.183594 146.734375 193.363281 146.941406 192.535156 147.105469 C 191.707031 147.269531 190.871094 147.394531 190.03125 147.476562 C 189.1875 147.558594 188.347656 147.601562 187.5 147.601562 C 186.65625 147.601562 185.8125 147.558594 184.972656 147.476562 C 184.132812 147.394531 183.296875 147.269531 182.46875 147.105469 C 181.640625 146.941406 180.820312 146.734375 180.011719 146.488281 C 179.203125 146.242188 178.410156 145.957031 177.628906 145.632812 C 176.847656 145.3125 176.085938 144.949219 175.339844 144.550781 C 174.59375 144.152344 173.871094 143.714844 173.167969 143.246094 C 172.464844 142.777344 171.789062 142.273438 171.132812 141.734375 C 170.480469 141.199219 169.855469 140.632812 169.257812 140.03125 C 168.660156 139.433594 168.09375 138.808594 167.558594 138.152344 C 167.023438 137.5 166.519531 136.820312 166.050781 136.117188 C 165.582031 135.414062 165.148438 134.6875 164.75 133.941406 C 164.351562 133.195312 163.988281 132.429688 163.667969 131.648438 C 163.34375 130.867188 163.058594 130.070312 162.8125 129.261719 C 162.566406 128.449219 162.363281 127.628906 162.199219 126.800781 C 162.03125 125.96875 161.910156 125.132812 161.828125 124.292969 C 161.742188 123.449219 161.703125 122.605469 161.703125 121.757812 C 161.703125 120.914062 161.742188 120.066406 161.828125 119.226562 C 161.910156 118.382812 162.03125 117.546875 162.199219 116.71875 C 162.363281 115.886719 162.566406 115.066406 162.8125 114.257812 C 163.058594 113.449219 163.34375 112.652344 163.667969 111.871094 C 163.988281 111.085938 164.351562 110.324219 164.75 109.578125 C 165.148438 108.832031 165.582031 108.105469 166.050781 107.402344 C 166.519531 106.699219 167.023438 106.019531 167.558594 105.363281 C 168.09375 104.710938 168.660156 104.082031 169.257812 103.484375 C 169.855469 102.886719 170.480469 102.320312 171.132812 101.78125 C 171.789062 101.246094 172.464844 100.742188 173.167969 100.273438 C 173.871094 99.800781 174.59375 99.367188 175.339844 98.96875 C 176.085938 98.570312 176.847656 98.207031 177.628906 97.882812 C 178.410156 97.558594 179.203125 97.273438 180.011719 97.027344 C 180.820312 96.785156 181.640625 96.578125 182.46875 96.414062 C 183.296875 96.246094 184.132812 96.125 184.972656 96.039062 C 185.8125 95.957031 186.65625 95.917969 187.5 95.917969 C 188.347656 95.917969 189.1875 95.957031 190.03125 96.039062 C 190.871094 96.125 191.707031 96.246094 192.535156 96.414062 C 193.363281 96.578125 194.183594 96.785156 194.992188 97.027344 C 195.800781 97.273438 196.59375 97.558594 197.375 97.882812 C 198.15625 98.207031 198.917969 98.570312 199.664062 98.96875 C 200.40625 99.367188 201.132812 99.800781 201.835938 100.273438 C 202.535156 100.742188 203.214844 101.246094 203.867188 101.78125 C 204.519531 102.320312 205.148438 102.886719 205.742188 103.484375 C 206.339844 104.082031 206.910156 104.710938 207.445312 105.363281 C 207.980469 106.019531 208.484375 106.699219 208.953125 107.402344 C 209.421875 108.105469 209.855469 108.832031 210.253906 109.578125 C 210.652344 110.324219 211.011719 111.085938 211.335938 111.871094 C 211.660156 112.652344 211.945312 113.449219 212.191406 114.257812 C 212.433594 115.066406 212.640625 115.886719 212.804688 116.71875 C 212.96875 117.546875 213.09375 118.382812 213.175781 119.226562 C 213.257812 120.066406 213.300781 120.914062 213.300781 121.757812 Z M 213.300781 121.757812 "/>
</g>
</svg>
